<svg version="1.1" xmlns="http://www.w3.org/2000/svg" viewBox="0 0 957.8626491542354 543.3215076851558" width="957.8626491542354" height="543.3215076851558" filter="invert(93%) hue-rotate(180deg)">
  <!-- svg-source:excalidraw -->
  
  <defs>
    <style class="style-fonts">
      @font-face {
        font-family: "Virgil";
        src: url("https://excalidraw.com/Virgil.woff2");
      }
      @font-face {
        font-family: "Cascadia";
        src: url("https://excalidraw.com/Cascadia.woff2");
      }
      @font-face {
        font-family: "Assistant";
        src: url("https://excalidraw.com/Assistant-Regular.woff2");
      }
    </style>
    
  </defs>
  <rect x="0" y="0" width="957.8626491542354" height="543.3215076851558" fill="#ffffff"></rect><g stroke-opacity="0.7" fill-opacity="0.7" stroke-linecap="round" transform="translate(293.026520739302 151.3954652007077) rotate(0 38.86717287358226 20.278523703535257)"><path d="M0 0 C0 0, 0 0, 0 0 M0 0 C0 0, 0 0, 0 0 M-0.26 6.4 C0.83 5.14, 1.93 3.88, 4.99 0.36 M-0.26 6.4 C0.85 5.11, 1.97 3.83, 4.99 0.36 M0.13 12.04 C2.67 9.12, 5.21 6.2, 10.63 -0.03 M0.13 12.04 C4.26 7.29, 8.4 2.54, 10.63 -0.03 M-0.13 18.44 C6.09 11.29, 12.31 4.13, 15.62 0.33 M-0.13 18.44 C4.75 12.82, 9.64 7.21, 15.62 0.33 M0.27 24.08 C5.08 18.54, 9.89 13.01, 21.26 -0.07 M0.27 24.08 C6.69 16.69, 13.12 9.29, 21.26 -0.07 M0 30.48 C10.37 18.56, 20.73 6.64, 26.25 0.29 M0 30.48 C6.26 23.28, 12.52 16.08, 26.25 0.29 M-0.26 36.88 C7.09 28.42, 14.44 19.97, 31.89 -0.1 M-0.26 36.88 C8.62 26.67, 17.5 16.45, 31.89 -0.1 M1.45 41.01 C14.04 26.53, 26.62 12.05, 36.88 0.26 M1.45 41.01 C12.11 28.75, 22.77 16.49, 36.88 0.26 M7.09 40.62 C17.26 28.92, 27.42 17.23, 42.52 -0.14 M7.09 40.62 C17.96 28.11, 28.83 15.61, 42.52 -0.14 M12.08 40.98 C19.98 31.88, 27.89 22.79, 47.51 0.22 M12.08 40.98 C19.18 32.81, 26.28 24.64, 47.51 0.22 M17.72 40.58 C26.62 30.35, 35.51 20.12, 53.15 -0.17 M17.72 40.58 C24.85 32.39, 31.97 24.19, 53.15 -0.17 M22.71 40.94 C34.94 26.87, 47.17 12.81, 58.14 0.19 M22.71 40.94 C31.22 31.15, 39.74 21.36, 58.14 0.19 M28.35 40.55 C41.38 25.56, 54.41 10.57, 63.78 -0.21 M28.35 40.55 C41.19 25.78, 54.02 11.02, 63.78 -0.21 M33.34 40.91 C42.85 29.97, 52.36 19.03, 68.77 0.15 M33.34 40.91 C44.8 27.72, 56.27 14.53, 68.77 0.15 M38.98 40.51 C49.05 28.93, 59.11 17.35, 74.41 -0.24 M38.98 40.51 C52.92 24.48, 66.86 8.45, 74.41 -0.24 M43.97 40.87 C55.56 27.55, 67.14 14.22, 78.09 1.63 M43.97 40.87 C56.03 27.01, 68.08 13.14, 78.09 1.63 M49.61 40.48 C56.58 32.47, 63.54 24.45, 77.82 8.03 M49.61 40.48 C58.01 30.82, 66.41 21.16, 77.82 8.03 M54.6 40.84 C61.82 32.53, 69.04 24.23, 78.22 13.67 M54.6 40.84 C60.1 34.51, 65.6 28.19, 78.22 13.67 M60.24 40.44 C65.61 34.27, 70.98 28.1, 77.96 20.07 M60.24 40.44 C65.17 34.78, 70.1 29.11, 77.96 20.07 M65.23 40.8 C69.14 36.31, 73.05 31.81, 77.7 26.46 M65.23 40.8 C68.53 37, 71.84 33.2, 77.7 26.46 M70.22 41.16 C72.57 38.45, 74.93 35.74, 78.09 32.11 M70.22 41.16 C72.88 38.1, 75.54 35.04, 78.09 32.11 M75.86 40.77 C76.47 40.07, 77.08 39.37, 77.83 38.51 M75.86 40.77 C76.56 39.97, 77.25 39.17, 77.83 38.51" stroke="#ff8787" stroke-width="0.5" fill="none"></path><path d="M0 0 C22.06 0, 44.12 0, 77.73 0 M0 0 C28.73 0, 57.46 0, 77.73 0 M77.73 0 C77.73 11.73, 77.73 23.47, 77.73 40.56 M77.73 0 C77.73 12.08, 77.73 24.16, 77.73 40.56 M77.73 40.56 C53.16 40.56, 28.58 40.56, 0 40.56 M77.73 40.56 C52.2 40.56, 26.67 40.56, 0 40.56 M0 40.56 C0 28.84, 0 17.12, 0 0 M0 40.56 C0 30.71, 0 20.85, 0 0" stroke="#1e1e1e" stroke-width="1" fill="none"></path></g><g stroke-linecap="round" transform="translate(10 10) rotate(0 468.9313245771177 261.6607538425779)"><path d="M0 0 C354.36 0, 708.72 0, 937.86 0 M0 0 C271.13 0, 542.25 0, 937.86 0 M937.86 0 C937.86 170.21, 937.86 340.43, 937.86 523.32 M937.86 0 C937.86 134.86, 937.86 269.71, 937.86 523.32 M937.86 523.32 C596.51 523.32, 255.16 523.32, 0 523.32 M937.86 523.32 C712.88 523.32, 487.91 523.32, 0 523.32 M0 523.32 C0 336.97, 0 150.62, 0 0 M0 523.32 C0 376.9, 0 230.47, 0 0" stroke="#1e1e1e" stroke-width="1" fill="none"></path></g><g stroke-linecap="round" transform="translate(24.70004140560195 22.740028408027115) rotate(0 113.19031134630774 247.94071893576336)"><path d="M0 0 C65.74 0, 131.48 0, 226.38 0 M0 0 C62.61 0, 125.23 0, 226.38 0 M226.38 0 C226.38 166.88, 226.38 333.76, 226.38 495.88 M226.38 0 C226.38 172.14, 226.38 344.28, 226.38 495.88 M226.38 495.88 C174.88 495.88, 123.37 495.88, 0 495.88 M226.38 495.88 C172.08 495.88, 117.79 495.88, 0 495.88 M0 495.88 C0 393, 0 290.12, 0 0 M0 495.88 C0 344.98, 0 194.07, 0 0" stroke="#1e1e1e" stroke-width="1" fill="none"></path></g><g stroke-linecap="round" transform="translate(268.23417607016427 25.193461590233255) rotate(0 331.24088814526544 245.49071203482953)"><path d="M0 0 C262.55 0, 525.11 0, 662.48 0 M0 0 C224.28 0, 448.57 0, 662.48 0 M662.48 0 C662.48 99.17, 662.48 198.35, 662.48 490.98 M662.48 0 C662.48 124.89, 662.48 249.78, 662.48 490.98 M662.48 490.98 C529.64 490.98, 396.8 490.98, 0 490.98 M662.48 490.98 C492.08 490.98, 321.68 490.98, 0 490.98 M0 490.98 C0 341.72, 0 192.45, 0 0 M0 490.98 C0 323.45, 0 155.91, 0 0" stroke="#1e1e1e" stroke-width="1" fill="none"></path></g><g transform="translate(288.8434511032798 44.5405349253308) rotate(0 304.68749999999994 38.39999999999998)"><text x="0" y="0" font-family="Cascadia, Segoe UI Emoji" font-size="16px" fill="#1e1e1e" text-anchor="start" style="white-space: pre;" direction="ltr" dominant-baseline="text-before-edge">Lets a game to guess the random color, if guessing is right show </text><text x="0" y="19.2" font-family="Cascadia, Segoe UI Emoji" font-size="16px" fill="#1e1e1e" text-anchor="start" style="white-space: pre;" direction="ltr" dominant-baseline="text-before-edge">nice and show the next example or else sorry try again</text><text x="0" y="38.4" font-family="Cascadia, Segoe UI Emoji" font-size="16px" fill="#1e1e1e" text-anchor="start" style="white-space: pre;" direction="ltr" dominant-baseline="text-before-edge"></text><text x="0" y="57.599999999999994" font-family="Cascadia, Segoe UI Emoji" font-size="16px" fill="#1e1e1e" text-anchor="start" style="white-space: pre;" direction="ltr" dominant-baseline="text-before-edge"></text></g><g stroke-opacity="0.7" fill-opacity="0.7" stroke-linecap="round" transform="translate(292.4267537309461 95.85031370382069) rotate(0 62.707522600907396 14.600000000000023)"><path d="M0 0 C34.63 0, 69.26 0, 125.42 0 M0 0 C31.28 0, 62.56 0, 125.42 0 M125.42 0 C125.42 7.25, 125.42 14.51, 125.42 29.2 M125.42 0 C125.42 10.53, 125.42 21.05, 125.42 29.2 M125.42 29.2 C94.17 29.2, 62.93 29.2, 0 29.2 M125.42 29.2 C93.52 29.2, 61.62 29.2, 0 29.2 M0 29.2 C0 22.55, 0 15.89, 0 0 M0 29.2 C0 20.8, 0 12.41, 0 0" stroke="#1e1e1e" stroke-width="1" fill="none"></path></g><g stroke-opacity="0.7" fill-opacity="0.7" transform="translate(312.94677633185347 100.85031370382069) rotate(0 42.1875 9.600000000000023)"><text x="42.1875" y="0" font-family="Cascadia, Segoe UI Emoji" font-size="16px" fill="#1e1e1e" text-anchor="middle" style="white-space: pre;" direction="ltr" dominant-baseline="text-before-edge">Interview</text></g><g stroke-opacity="0.7" fill-opacity="0.7" stroke-linecap="round" transform="translate(430.6549636905993 96.12192421364637) rotate(0 35.16771330385677 14.600000000000023)"><path d="M0 0 C18.74 0, 37.47 0, 70.34 0 M0 0 C17.39 0, 34.78 0, 70.34 0 M70.34 0 C70.34 11.11, 70.34 22.23, 70.34 29.2 M70.34 0 C70.34 6.99, 70.34 13.99, 70.34 29.2 M70.34 29.2 C55.68 29.2, 41.02 29.2, 0 29.2 M70.34 29.2 C44.54 29.2, 18.74 29.2, 0 29.2 M0 29.2 C0 22.65, 0 16.1, 0 0 M0 29.2 C0 21.59, 0 13.97, 0 0" stroke="#1e1e1e" stroke-width="1" fill="none"></path></g><g stroke-opacity="0.7" fill-opacity="0.7" transform="translate(447.07267699445606 101.12192421364637) rotate(0 18.75 9.600000000000023)"><text x="18.75" y="0" font-family="Cascadia, Segoe UI Emoji" font-size="16px" fill="#1e1e1e" text-anchor="middle" style="white-space: pre;" direction="ltr" dominant-baseline="text-before-edge">Game</text></g><g stroke-opacity="0.7" fill-opacity="0.7" stroke-linecap="round" transform="translate(292.74925655193954 150.74346107404642) rotate(0 309.5821660961954 140.64966525514103)"><path d="M0 0 C126.3 0, 252.6 0, 619.16 0 M0 0 C193.92 0, 387.85 0, 619.16 0 M619.16 0 C619.16 76.86, 619.16 153.73, 619.16 281.3 M619.16 0 C619.16 93.51, 619.16 187.02, 619.16 281.3 M619.16 281.3 C384.19 281.3, 149.22 281.3, 0 281.3 M619.16 281.3 C378.75 281.3, 138.33 281.3, 0 281.3 M0 281.3 C0 183.59, 0 85.87, 0 0 M0 281.3 C0 179.35, 0 77.4, 0 0" stroke="#1e1e1e" stroke-width="1" fill="none"></path></g><g stroke-linecap="round"><g stroke-opacity="0.7" fill-opacity="0.7" transform="translate(293.54371785787794 192.02105114468816) rotate(0 308.8656669595614 0.7644033260702372)"><path d="M0 0 C195.15 0.48, 390.29 0.97, 617.73 1.53 M0 0 C203.13 0.5, 406.27 1.01, 617.73 1.53" stroke="#1e1e1e" stroke-width="1" fill="none"></path></g></g><mask></mask><g stroke-linecap="round"><g stroke-opacity="0.7" fill-opacity="0.7" transform="translate(370.9170939894866 150.2717894393753) rotate(0 -0.28775770523623123 20.85007983607329)"><path d="M0 0 C-0.18 12.84, -0.35 25.68, -0.58 41.7 M0 0 C-0.13 9.59, -0.26 19.18, -0.58 41.7" stroke="#1e1e1e" stroke-width="1" fill="none"></path></g></g><mask></mask><g stroke-linecap="round"><g stroke-opacity="0.7" fill-opacity="0.7" transform="translate(498.28204993862073 150.16643726566178) rotate(0 -0.17699206190525274 20.816952989428614)"><path d="M0 0 C-0.1 11.74, -0.2 23.49, -0.35 41.63 M0 0 C-0.08 9.41, -0.16 18.83, -0.35 41.63" stroke="#1e1e1e" stroke-width="1" fill="none"></path></g></g><mask></mask><g stroke-opacity="0.7" fill-opacity="0.7" transform="translate(303.48288781082454 162.21360375497113) rotate(0 32.81250000000006 9.600000000000023)"><text x="0" y="0" font-family="Cascadia, Segoe UI Emoji" font-size="16px" fill="#1e1e1e" text-anchor="start" style="white-space: pre;" direction="ltr" dominant-baseline="text-before-edge">Output </text></g><g stroke-opacity="0.7" fill-opacity="0.7" transform="translate(379.67925144853734 162.14296053856776) rotate(0 56.25 9.600000000000023)"><text x="0" y="0" font-family="Cascadia, Segoe UI Emoji" font-size="16px" fill="#1e1e1e" text-anchor="start" style="white-space: pre;" direction="ltr" dominant-baseline="text-before-edge">+page.svelte</text></g><g stroke-opacity="0.7" fill-opacity="0.7" transform="translate(303.7956405825506 207.7492531160657) rotate(0 79.68750000000006 28.799999999999955)"><text x="0" y="0" font-family="Cascadia, Segoe UI Emoji" font-size="16px" fill="#1e1e1e" text-anchor="start" style="white-space: pre;" direction="ltr" dominant-baseline="text-before-edge">&lt;script&gt;</text><text x="0" y="19.2" font-family="Cascadia, Segoe UI Emoji" font-size="16px" fill="#1e1e1e" text-anchor="start" style="white-space: pre;" direction="ltr" dominant-baseline="text-before-edge">    Coding is fun</text><text x="0" y="38.4" font-family="Cascadia, Segoe UI Emoji" font-size="16px" fill="#1e1e1e" text-anchor="start" style="white-space: pre;" direction="ltr" dominant-baseline="text-before-edge">&lt;/script&gt;</text></g></svg>